<svg xmlns="http://www.w3.org/2000/svg" viewBox="0 0 180 180" width="180" height="180">
  <defs>
    <linearGradient id="bg" x1="0%" y1="0%" x2="100%" y2="100%">
      <stop offset="0%" style="stop-color:#6366f1"/>
      <stop offset="100%" style="stop-color:#a855f7"/>
    </linearGradient>
    <linearGradient id="shine" x1="0%" y1="0%" x2="0%" y2="100%">
      <stop offset="0%" style="stop-color:#ffffff;stop-opacity:0.15"/>
      <stop offset="100%" style="stop-color:#ffffff;stop-opacity:0"/>
    </linearGradient>
  </defs>

  <!-- Achtergrond met afgeronde hoeken -->
  <rect width="180" height="180" rx="40" fill="url(#bg)"/>
  <rect width="180" height="180" rx="40" fill="url(#shine)"/>

  <!-- Huis -->
  <polygon points="90,28 32,80 48,80 48,148 132,148 132,80 148,80" fill="white" opacity="0.95"/>

  <!-- Deur -->
  <rect x="74" y="108" width="32" height="40" rx="16" fill="#a855f7"/>

  <!-- Hartje -->
  <path d="M90,72 C90,72 76,60 76,52 C76,46 81,42 86,44 C88,45 90,47 90,47 C90,47 92,45 94,44 C99,42 104,46 104,52 C104,60 90,72 90,72 Z" fill="#f9a8d4"/>
</svg>
